<svg height="512" viewBox="0 0 64 64" width="512" xmlns="http://www.w3.org/2000/svg"><g id="Filled_outline" data-name="Filled outline"><path d="m32 39h22v20h-22z" fill="#5f79ba"/><path d="m36 39h14a0 0 0 0 1 0 0v6a6 6 0 0 1 -6 6h-2a6 6 0 0 1 -6-6v-6a0 0 0 0 1 0 0z" fill="#f98c96"/><g fill="#ffd782"><path d="m54 39h6a0 0 0 0 1 0 0v20a0 0 0 0 1 0 0h-3a3 3 0 0 1 -3-3v-17a0 0 0 0 1 0 0z" transform="matrix(-1 0 0 -1 114 98)"/><path d="m43 45 5-6h-10z"/><path d="m24 39v-12a2 2 0 0 0 -2-2h-8a2 2 0 0 0 -2 2 2 2 0 0 0 2 2h4v14a2 2 0 0 0 2 2h12v-6z"/></g><path d="m39 59v-4h7 1v4z" fill="#486296"/><path d="m26 39h6v6h-6z" fill="#f98c96"/><path d="m54 39h6a0 0 0 0 1 0 0v6a0 0 0 0 1 0 0h-3a3 3 0 0 1 -3-3v-3a0 0 0 0 1 0 0z" fill="#f98c96" transform="matrix(-1 0 0 -1 114 84)"/><path d="m34 19v16h18v-16c-4.971 0-9-4-9-8 0 4-4.029 8-9 8z" fill="#ffd782"/><path d="m52 7h-18l-4 5v19l4 2v-14c4.971 0 9-4 9-8 0 4 4.029 8 9 8v14l4-2v-19z" fill="#394d5c"/><path d="m55 19h1a0 0 0 0 1 0 0v6a0 0 0 0 1 0 0h-1a3 3 0 0 1 -3-3 3 3 0 0 1 3-3z" fill="#f9bb4b" transform="matrix(-1 0 0 -1 108 44)"/><path d="m33 19h1a0 0 0 0 1 0 0v6a0 0 0 0 1 0 0h-1a3 3 0 0 1 -3-3 3 3 0 0 1 3-3z" fill="#f9bb4b"/><path d="m3 21h23v4h-23z" fill="#50b4f8"/><path d="m6 13h16v8h-16z" fill="#f9bb4b"/><path d="m6 13h16v4h-16z" fill="#995f5b"/><path d="m10 13 5-6h6l-5 6z" fill="#db527d"/><path d="m3 26h8.184a2.966 2.966 0 0 0 -.184 1 3 3 0 0 0 3 3h3v13a3 3 0 0 0 3 3h11v13a1 1 0 0 0 1 1h28a1 1 0 0 0 1-1v-17a4 4 0 0 0 -4-4h-32v-11a2.966 2.966 0 0 0 -.184-1h1.184a1 1 0 0 0 1-1v-4a1 1 0 0 0 -1-1h-3v-7a1 1 0 0 0 -1-1h-3.865l3.633-4.36a1 1 0 0 0 -.768-1.64h-6a1 1 0 0 0 -.768.36l-4.7 5.64h-3.532a1 1 0 0 0 -1 1v7h-2a1 1 0 0 0 -1 1v4a1 1 0 0 0 1 1zm52 14h2a2 2 0 0 1 2 2v2h-4zm0 6h4v12h-4zm-9 12h-6v-2h6zm2.468-18h.532v5a4.639 4.639 0 0 1 -5 5v-4.638zm-2.6 0-2.868 3.438-2.865-3.438zm-8.868 0h.532l4.468 5.362v4.638c-3.13 0-5-3.051-5-6zm-4 0h2v4c0 3.933 2.618 8 7 8h2a6.627 6.627 0 0 0 7-7v-5h2v18h-5v-3a1 1 0 0 0 -1-1h-8a1 1 0 0 0 -1 1v3h-5zm-6 0h4v4h-4zm-2 0v4h-5a1 1 0 0 1 -1-1v-14a1 1 0 0 0 -1-1h-4a1 1 0 0 1 0-2h8a1 1 0 0 1 1 1v12a1 1 0 0 0 1 1zm-9.532-32h3.4l-3.333 4h-3.4zm-8.468 6h14v2h-14zm0 4h14v2h-14zm-3 4h21v2h-21z"/><path d="m34 36h18a1 1 0 0 0 1-1v-1.382l3.447-1.718a1 1 0 0 0 .553-.9v-19a1 1 0 0 0 -.219-.625l-4-5a1 1 0 0 0 -.781-.375h-18a1 1 0 0 0 -.781.375l-4 5a1 1 0 0 0 -.219.625v19a1 1 0 0 0 .553.895l3.447 1.723v1.382a1 1 0 0 0 1 1zm17-2h-16v-14.049a10.386 10.386 0 0 0 8-5.161 10.386 10.386 0 0 0 8 5.161zm4-3.618-2 1v-5.382a3.959 3.959 0 0 0 2-.556zm-2-6.382v-4a2 2 0 0 1 0 4zm-22-11.649 3.48-4.351h17.04l3.48 4.351v6.205a3.959 3.959 0 0 0 -2-.556v-3a1 1 0 0 0 -1-1c-3.834 0-3.995-2.7-4-3.009l-2 .009c0 1.6 1.075 4.523 5 4.948v1.986c-4.067-.488-7-3.876-7-6.934a1 1 0 0 0 -2 0c0 3.058-2.933 6.446-7 6.934v-1.986c3.925-.425 5-3.347 5-4.948h-2c0 .123-.045 3-4 3a1 1 0 0 0 -1 1v3a3.959 3.959 0 0 0 -2 .556zm2 7.649v4a2 2 0 0 1 0-4zm-2 10.382v-4.938a3.959 3.959 0 0 0 2 .556v5.382z"/><path d="m38 21h2v2h-2z"/><path d="m46 21h2v2h-2z"/><path d="m42 23h2v4h-2z"/><path d="m39 26h-2a6 6 0 0 0 12 0h-2a4 4 0 0 1 -8 0z"/></g></svg>